<?xml version="1.0" encoding="UTF-8"?><svg id="Layer_1" xmlns="http://www.w3.org/2000/svg" viewBox="0 0 236.92 131.57"><defs><style>.cls-1{fill:#2f323a;}</style></defs><g><path class="cls-1" d="M30.15,59.37c1.54-2.85,4.42-5.94,8.25-7.34,.25-.09,.23-.44-.03-.5-1.44-.32-6.82-1.2-6.87-2.78-.02-.69,.92-1.34,1.88-1.65,2.39-.78,4.84-1.07,7.35-1.27,3.28-.31,6.79-.18,10.18-.99,1.88-.46,3.55-1.87,2.74-4.17-.7-1.7-2.27-1.95-3.71-2.11-3.91-.31-7.85,.34-11.46-1.48-3.54-1.76-4.63-6.34-4.31-10.3,.01-.12-.08-.23-.2-.25h0c-.13-.02-.24,.07-.26,.2-.93,5.71,.94,10.46,5.46,12.57,1.02,.48,2.13,.76,3.25,.9,4.41,.57,7.2,.22,7.38,1.41,.13,.86-2.42,.63-4.27,.61-6.05-.08-9.78-1.73-15.66,.9-3.57,1.6-3.76,5.32-2.88,8.54,.32,1.17,1.91,6.93,2.73,7.79,.12,.13,.33,.1,.42-.06Z"/><path class="cls-1" d="M29.07,105.05v-36.74c0-8.7,6.42-16.03,14.93-17.04,.8-.09,1.62-.14,2.41-.14,10.62,0,19.26,8.12,19.26,18.11,0,1.17-.12,2.33-.35,3.46-.09,.45,.06,.93,.39,1.29,4.14,4.41,6.42,10.16,6.42,16.2,0,2.47-.38,4.92-1.14,7.26-.07,.21-.15,.43-.24,.67-1.57,4.14-5.63,6.92-10.1,6.92H29.07Zm31.63-2.57c3.52,0,6.64-2.23,7.76-5.55l.02-.05c.72-2.15,1.09-4.41,1.09-6.69,0-3.27-.71-6.38-2.11-9.25-1.51-3.09-4.98-4.48-7.75-4.48-1.18,0-2.31,.24-3.26,.68-4.48,2.1-5.76,4.69-6.37,8.19l-.02,.11-.02,.04c-.16,.48-.57,.79-1.07,.79-.62,0-1.14-.48-1.2-1.12-.06-.63,.02-1.73,.4-2.97,.55-1.78,1.48-4.04,3.83-5.83,2.19-1.67,4.33-2.32,6.22-2.89l.37-.11c2.74-.83,4.52-3.36,4.34-6.14-.02-.35-.04-.47-.05-.51-.22-1.25-.6-2.46-1.14-3.61-2.65-5.71-8.67-9.4-15.33-9.4-.17,0-.35,0-.52,0-7.86,.22-14.25,6.9-14.25,14.88v33.89h10.2c-1.55-1.72-2.41-3.85-2.56-6.34-.05-.78,.32-1.34,1.05-1.58,.62-.2,1.12-.32,1.6-.39,2.37-.33,4.87-.5,7.42-.5,1.89,0,3.88,.09,5.9,.27,.66,.06,1.53,.17,2.38,.5,.9,.33,1,.96,.97,1.32-.09,1.64-.55,4.43-2.55,6.71h4.64Z"/></g><g><g><path class="cls-1" d="M110.9,57.58c0,1.34-.26,2.6-.77,3.77-.51,1.18-1.21,2.2-2.09,3.08s-1.91,1.58-3.09,2.09c-1.18,.51-2.43,.77-3.77,.77h-16.2V34.89h16.2c1.34,0,2.6,.26,3.77,.77,1.18,.51,2.2,1.21,3.09,2.09s1.58,1.91,2.09,3.08c.51,1.18,.77,2.43,.77,3.77,0,.6-.08,1.22-.25,1.85-.17,.63-.4,1.24-.7,1.83-.3,.59-.66,1.12-1.08,1.6-.42,.48-.89,.88-1.4,1.2,.53,.29,1,.67,1.42,1.16,.42,.49,.78,1.03,1.08,1.62,.3,.59,.53,1.2,.69,1.84,.16,.64,.24,1.26,.24,1.86Zm-19.44-9.72h9.72c.45,0,.87-.08,1.27-.25,.39-.17,.73-.4,1.03-.69,.29-.29,.52-.64,.69-1.04,.17-.4,.25-.82,.25-1.28s-.08-.87-.25-1.27c-.17-.39-.4-.73-.69-1.03s-.64-.52-1.03-.69c-.39-.17-.81-.25-1.27-.25h-9.72v6.49Zm0,12.95h9.72c.45,0,.87-.08,1.27-.25,.39-.17,.73-.4,1.03-.69,.29-.29,.52-.64,.69-1.03,.17-.39,.25-.81,.25-1.27s-.08-.87-.25-1.27c-.17-.39-.4-.73-.69-1.03-.29-.29-.64-.52-1.03-.69-.39-.17-.81-.25-1.27-.25h-9.72v6.46Z"/><path class="cls-1" d="M122.29,67.3h-6.49V34.89h12.97c1.19,0,2.34,.15,3.44,.46,1.1,.31,2.13,.75,3.08,1.31,.96,.56,1.83,1.24,2.62,2.03,.79,.79,1.47,1.67,2.03,2.63,.56,.96,1,2,1.31,3.1,.31,1.1,.46,2.25,.46,3.44,0,1.12-.14,2.2-.42,3.25-.28,1.05-.68,2.06-1.2,3.01s-1.16,1.82-1.91,2.62c-.75,.8-1.6,1.49-2.53,2.08l3.59,8.48h-6.89l-2.82-6.53-7.25,.05v6.49Zm0-25.92v12.97h6.49c.89,0,1.73-.17,2.51-.51,.78-.34,1.47-.8,2.06-1.39s1.05-1.28,1.39-2.07c.34-.79,.51-1.63,.51-2.52s-.17-1.73-.51-2.52c-.34-.79-.8-1.48-1.39-2.07-.59-.59-1.27-1.05-2.06-1.39-.78-.34-1.62-.51-2.51-.51h-6.49Z"/><path class="cls-1" d="M171.54,54.35c0,1.79-.34,3.48-1.02,5.05-.68,1.57-1.6,2.95-2.78,4.11-1.18,1.17-2.55,2.09-4.12,2.77-1.57,.68-3.26,1.02-5.05,1.02s-3.48-.34-5.05-1.02c-1.57-.68-2.95-1.6-4.11-2.77-1.17-1.17-2.09-2.54-2.77-4.11-.68-1.57-1.02-3.26-1.02-5.05v-19.46h6.46v19.46c0,.89,.17,1.73,.51,2.51,.34,.78,.8,1.47,1.39,2.06s1.28,1.05,2.07,1.39c.79,.34,1.63,.51,2.52,.51s1.73-.17,2.52-.51,1.48-.8,2.07-1.39c.59-.59,1.05-1.27,1.39-2.06,.34-.78,.51-1.62,.51-2.51v-19.46h6.49v19.46Z"/></g><g><path class="cls-1" d="M112.53,101.07c-1.51,1.28-3.19,2.26-5.04,2.95-1.85,.69-3.78,1.03-5.79,1.03-1.54,0-3.02-.2-4.44-.6-1.42-.4-2.75-.96-3.99-1.69-1.24-.73-2.37-1.6-3.39-2.62-1.02-1.02-1.9-2.15-2.62-3.39-.72-1.24-1.28-2.58-1.68-4.01-.4-1.43-.6-2.92-.6-4.45s.2-3.01,.6-4.43c.4-1.42,.96-2.75,1.68-3.99,.72-1.24,1.6-2.37,2.62-3.39,1.02-1.02,2.15-1.89,3.39-2.61,1.24-.72,2.57-1.28,3.99-1.68,1.42-.4,2.9-.6,4.44-.6,2,0,3.93,.34,5.79,1.03,1.85,.69,3.53,1.67,5.04,2.95l-3.39,5.65c-.98-.99-2.11-1.77-3.39-2.34-1.28-.56-2.63-.85-4.05-.85s-2.75,.27-3.99,.81c-1.24,.54-2.33,1.28-3.27,2.2-.93,.93-1.67,2.01-2.21,3.25-.54,1.24-.81,2.57-.81,3.99s.27,2.77,.81,4.02c.54,1.25,1.28,2.34,2.21,3.28,.93,.93,2.02,1.67,3.27,2.21,1.24,.54,2.57,.81,3.99,.81,.81,0,1.6-.1,2.37-.29,.77-.2,1.5-.47,2.19-.81v-9.22h6.26v12.79Z"/><path class="cls-1" d="M139.74,104.35h-22.22v-32.41h22.22v6.49h-15.73v6.49h10.64v6.49h-10.64v6.46h15.73v6.49Z"/><path class="cls-1" d="M170.2,104.35h-6.94l-12.5-21.33v21.33h-6.49v-32.41h6.94l12.5,21.36v-21.36h6.49v32.41Z"/><path class="cls-1" d="M182.7,104.35h-6.49v-32.41h6.49v32.41Z"/><path class="cls-1" d="M210.93,104.35h-22.22v-32.41h22.22v6.49h-15.73v6.49h10.64v6.49h-10.64v6.46h15.73v6.49Z"/></g></g></svg>