<svg xmlns="http://www.w3.org/2000/svg" xmlns:xlink="http://www.w3.org/1999/xlink" width="500" zoomAndPan="magnify" viewBox="0 0 375 374.999991" height="500" preserveAspectRatio="xMidYMid meet" version="1.0"><rect x="-37.5" width="450" fill="#ffffff" y="-37.499999" height="449.999989" fill-opacity="1"/><rect x="-37.5" width="450" fill="#000000" y="-37.499999" height="449.999989" fill-opacity="1"/><path fill="#ffffff" d="M 47.722656 177.34375 C 50.160156 172.832031 54.71875 167.941406 60.78125 165.726562 C 61.175781 165.582031 61.144531 165.027344 60.734375 164.933594 C 58.453125 164.425781 49.9375 163.035156 49.859375 160.53125 C 49.828125 159.441406 51.316406 158.410156 52.835938 157.921875 C 56.617188 156.6875 60.496094 156.226562 64.46875 155.910156 C 69.660156 155.421875 75.214844 155.625 80.582031 154.34375 C 83.558594 153.617188 86.199219 151.382812 84.917969 147.742188 C 83.808594 145.054688 81.324219 144.65625 79.046875 144.402344 C 72.855469 143.914062 66.621094 144.941406 60.90625 142.0625 C 55.304688 139.277344 53.578125 132.027344 54.085938 125.757812 C 54.101562 125.570312 53.957031 125.394531 53.769531 125.363281 C 53.5625 125.332031 53.386719 125.472656 53.355469 125.679688 C 51.882812 134.71875 54.84375 142.234375 62 145.574219 C 63.613281 146.335938 65.371094 146.777344 67.144531 147 C 74.125 147.902344 78.539062 147.347656 78.824219 149.230469 C 79.03125 150.59375 74.992188 150.230469 72.066406 150.199219 C 62.488281 150.070312 56.585938 147.460938 47.277344 151.621094 C 41.628906 154.15625 41.328125 160.042969 42.71875 165.140625 C 43.226562 166.992188 45.742188 176.109375 47.042969 177.46875 C 47.230469 177.675781 47.5625 177.628906 47.707031 177.375 Z M 47.722656 177.34375 " fill-opacity="1" fill-rule="nonzero"/><path fill="#ffffff" d="M 46.011719 249.644531 L 46.011719 191.492188 C 46.011719 177.722656 56.175781 166.121094 69.644531 164.523438 C 70.910156 164.378906 72.207031 164.300781 73.457031 164.300781 C 90.269531 164.300781 103.941406 177.152344 103.941406 192.964844 C 103.941406 194.816406 103.753906 196.652344 103.390625 198.441406 C 103.246094 199.152344 103.484375 199.914062 104.007812 200.484375 C 110.558594 207.464844 114.167969 216.566406 114.167969 226.125 C 114.167969 230.035156 113.566406 233.914062 112.363281 237.617188 C 112.253906 237.949219 112.125 238.296875 111.984375 238.675781 C 109.5 245.230469 103.074219 249.628906 95.996094 249.628906 L 46.011719 249.628906 Z M 96.078125 245.578125 C 101.648438 245.578125 106.585938 242.046875 108.359375 236.792969 L 108.390625 236.714844 C 109.53125 233.3125 110.117188 229.734375 110.117188 226.125 C 110.117188 220.949219 108.992188 216.027344 106.777344 211.484375 C 104.386719 206.59375 98.894531 204.394531 94.507812 204.394531 C 92.640625 204.394531 90.851562 204.773438 89.351562 205.46875 C 82.257812 208.792969 80.234375 212.890625 79.265625 218.433594 L 79.234375 218.605469 L 79.203125 218.667969 C 78.949219 219.429688 78.300781 219.921875 77.511719 219.921875 C 76.527344 219.921875 75.707031 219.160156 75.609375 218.148438 C 75.515625 217.148438 75.644531 215.410156 76.242188 213.445312 C 77.113281 210.628906 78.585938 207.050781 82.304688 204.21875 C 85.773438 201.574219 89.160156 200.546875 92.152344 199.644531 L 92.738281 199.46875 C 97.074219 198.15625 99.890625 194.152344 99.605469 189.75 C 99.574219 189.199219 99.542969 189.007812 99.527344 188.945312 C 99.179688 186.964844 98.578125 185.050781 97.722656 183.230469 C 93.527344 174.191406 84 168.351562 73.457031 168.351562 C 73.1875 168.351562 72.90625 168.351562 72.636719 168.351562 C 60.195312 168.699219 50.082031 179.273438 50.082031 191.90625 L 50.082031 245.546875 L 66.226562 245.546875 C 63.773438 242.824219 62.410156 239.453125 62.171875 235.511719 C 62.09375 234.277344 62.679688 233.390625 63.835938 233.011719 C 64.816406 232.695312 65.609375 232.503906 66.367188 232.394531 C 70.117188 231.871094 74.074219 231.601562 78.113281 231.601562 C 81.101562 231.601562 84.253906 231.742188 87.449219 232.027344 C 88.496094 232.125 89.871094 232.296875 91.21875 232.820312 C 92.640625 233.34375 92.800781 234.339844 92.753906 234.910156 C 92.609375 237.503906 91.882812 241.921875 88.714844 245.53125 L 96.0625 245.53125 Z M 96.078125 245.578125 " fill-opacity="1" fill-rule="nonzero"/><path fill="#ffffff" d="M 175.535156 174.507812 C 175.535156 176.628906 175.121094 178.625 174.316406 180.476562 C 173.507812 182.34375 172.398438 183.957031 171.007812 185.351562 C 169.613281 186.746094 167.984375 187.851562 166.117188 188.660156 C 164.25 189.46875 162.269531 189.878906 160.148438 189.878906 L 134.507812 189.878906 L 134.507812 138.59375 L 160.148438 138.59375 C 162.269531 138.59375 164.265625 139.007812 166.117188 139.8125 C 167.984375 140.621094 169.597656 141.730469 171.007812 143.121094 C 172.414062 144.515625 173.507812 146.144531 174.316406 147.996094 C 175.121094 149.863281 175.535156 151.84375 175.535156 153.964844 C 175.535156 154.914062 175.40625 155.894531 175.136719 156.894531 C 174.871094 157.890625 174.503906 158.855469 174.03125 159.789062 C 173.554688 160.722656 172.984375 161.5625 172.320312 162.320312 C 171.65625 163.082031 170.914062 163.714844 170.105469 164.222656 C 170.945312 164.679688 171.6875 165.28125 172.351562 166.058594 C 173.015625 166.832031 173.585938 167.6875 174.0625 168.621094 C 174.535156 169.554688 174.902344 170.519531 175.152344 171.535156 C 175.40625 172.546875 175.535156 173.527344 175.535156 174.476562 Z M 144.765625 159.125 L 160.148438 159.125 C 160.859375 159.125 161.527344 158.996094 162.160156 158.730469 C 162.777344 158.460938 163.316406 158.09375 163.789062 157.636719 C 164.25 157.175781 164.613281 156.625 164.882812 155.992188 C 165.152344 155.355469 165.277344 154.691406 165.277344 153.964844 C 165.277344 153.234375 165.152344 152.585938 164.882812 151.953125 C 164.613281 151.335938 164.25 150.796875 163.789062 150.324219 C 163.332031 149.847656 162.777344 149.5 162.160156 149.230469 C 161.542969 148.960938 160.878906 148.835938 160.148438 148.835938 L 144.765625 148.835938 Z M 144.765625 179.621094 L 160.148438 179.621094 C 160.859375 179.621094 161.527344 179.496094 162.160156 179.226562 C 162.777344 178.957031 163.316406 178.59375 163.789062 178.132812 C 164.25 177.675781 164.613281 177.121094 164.882812 176.503906 C 165.152344 175.886719 165.277344 175.222656 165.277344 174.492188 C 165.277344 173.765625 165.152344 173.117188 164.882812 172.484375 C 164.613281 171.867188 164.25 171.328125 163.789062 170.851562 C 163.332031 170.394531 162.777344 170.03125 162.160156 169.761719 C 161.542969 169.492188 160.878906 169.363281 160.148438 169.363281 L 144.765625 169.363281 Z M 144.765625 179.621094 " fill-opacity="1" fill-rule="nonzero"/><path fill="#ffffff" d="M 193.5625 189.894531 L 183.289062 189.894531 L 183.289062 138.59375 L 203.820312 138.59375 C 205.703125 138.59375 207.523438 138.832031 209.265625 139.324219 C 211.003906 139.8125 212.636719 140.511719 214.140625 141.398438 C 215.660156 142.285156 217.035156 143.359375 218.285156 144.609375 C 219.535156 145.859375 220.613281 147.253906 221.5 148.773438 C 222.386719 150.292969 223.082031 151.9375 223.574219 153.679688 C 224.0625 155.421875 224.300781 157.242188 224.300781 159.125 C 224.300781 160.898438 224.078125 162.605469 223.636719 164.269531 C 223.191406 165.929688 222.558594 167.527344 221.734375 169.03125 C 220.914062 170.535156 219.898438 171.914062 218.714844 173.179688 C 217.527344 174.445312 216.179688 175.539062 214.707031 176.472656 L 220.390625 189.894531 L 209.484375 189.894531 L 205.023438 179.558594 L 193.546875 179.636719 L 193.546875 189.910156 Z M 193.5625 148.867188 L 193.5625 169.398438 L 203.835938 169.398438 C 205.242188 169.398438 206.574219 169.128906 207.808594 168.589844 C 209.042969 168.050781 210.132812 167.324219 211.066406 166.390625 C 212 165.457031 212.730469 164.363281 213.269531 163.113281 C 213.804688 161.863281 214.074219 160.53125 214.074219 159.125 C 214.074219 157.714844 213.804688 156.386719 213.269531 155.136719 C 212.730469 153.886719 212 152.792969 211.066406 151.859375 C 210.132812 150.925781 209.058594 150.199219 207.808594 149.660156 C 206.574219 149.121094 205.242188 148.851562 203.835938 148.851562 L 193.5625 148.851562 Z M 193.5625 148.867188 " fill-opacity="1" fill-rule="nonzero"/><path fill="#ffffff" d="M 271.515625 169.398438 C 271.515625 172.230469 270.976562 174.90625 269.902344 177.390625 C 268.824219 179.875 267.367188 182.058594 265.5 183.894531 C 263.632812 185.746094 261.464844 187.203125 258.980469 188.28125 C 256.496094 189.355469 253.820312 189.894531 250.988281 189.894531 C 248.152344 189.894531 245.476562 189.355469 242.992188 188.28125 C 240.507812 187.203125 238.324219 185.746094 236.488281 183.894531 C 234.636719 182.042969 233.179688 179.875 232.105469 177.390625 C 231.027344 174.90625 230.488281 172.230469 230.488281 169.398438 L 230.488281 138.59375 L 240.714844 138.59375 L 240.714844 169.398438 C 240.714844 170.804688 240.984375 172.136719 241.519531 173.371094 C 242.058594 174.605469 242.789062 175.695312 243.722656 176.628906 C 244.65625 177.5625 245.746094 178.292969 246.996094 178.832031 C 248.25 179.367188 249.578125 179.636719 250.988281 179.636719 C 252.394531 179.636719 253.726562 179.367188 254.976562 178.832031 C 256.226562 178.292969 257.316406 177.5625 258.25 176.628906 C 259.1875 175.695312 259.914062 174.621094 260.453125 173.371094 C 260.988281 172.136719 261.257812 170.804688 261.257812 169.398438 L 261.257812 138.59375 L 271.53125 138.59375 L 271.53125 169.398438 Z M 271.515625 169.398438 " fill-opacity="1" fill-rule="nonzero"/><path fill="#ffffff" d="M 178.113281 243.347656 C 175.722656 245.371094 173.066406 246.921875 170.136719 248.015625 C 167.207031 249.105469 164.152344 249.644531 160.972656 249.644531 C 158.535156 249.644531 156.191406 249.328125 153.945312 248.695312 C 151.695312 248.0625 149.589844 247.175781 147.628906 246.019531 C 145.667969 244.867188 143.878906 243.488281 142.261719 241.875 C 140.648438 240.257812 139.257812 238.472656 138.117188 236.507812 C 136.976562 234.546875 136.089844 232.425781 135.457031 230.160156 C 134.824219 227.898438 134.507812 225.539062 134.507812 223.117188 C 134.507812 220.695312 134.824219 218.351562 135.457031 216.105469 C 136.089844 213.859375 136.976562 211.753906 138.117188 209.789062 C 139.257812 207.828125 140.648438 206.039062 142.261719 204.425781 C 143.878906 202.808594 145.667969 201.433594 147.628906 200.292969 C 149.589844 199.152344 151.695312 198.265625 153.945312 197.632812 C 156.191406 197 158.535156 196.683594 160.972656 196.683594 C 164.136719 196.683594 167.191406 197.222656 170.136719 198.316406 C 173.066406 199.40625 175.722656 200.957031 178.113281 202.984375 L 172.75 211.925781 C 171.195312 210.359375 169.410156 209.125 167.382812 208.222656 C 165.355469 207.335938 163.21875 206.878906 160.972656 206.878906 C 158.722656 206.878906 156.621094 207.304688 154.65625 208.160156 C 152.695312 209.015625 150.96875 210.1875 149.480469 211.640625 C 148.007812 213.113281 146.835938 214.824219 145.984375 216.785156 C 145.128906 218.75 144.699219 220.855469 144.699219 223.101562 C 144.699219 225.347656 145.128906 227.484375 145.984375 229.464844 C 146.835938 231.441406 148.007812 233.167969 149.480469 234.65625 C 150.953125 236.128906 152.679688 237.300781 154.65625 238.152344 C 156.621094 239.007812 158.722656 239.4375 160.972656 239.4375 C 162.253906 239.4375 163.503906 239.277344 164.722656 238.976562 C 165.941406 238.660156 167.097656 238.234375 168.191406 237.695312 L 168.191406 223.101562 L 178.097656 223.101562 L 178.097656 243.347656 Z M 178.113281 243.347656 " fill-opacity="1" fill-rule="nonzero"/><path fill="#ffffff" d="M 221.183594 248.539062 L 186.011719 248.539062 L 186.011719 197.238281 L 221.183594 197.238281 L 221.183594 207.511719 L 196.285156 207.511719 L 196.285156 217.785156 L 213.125 217.785156 L 213.125 228.054688 L 196.285156 228.054688 L 196.285156 238.28125 L 221.183594 238.28125 L 221.183594 248.554688 Z M 221.183594 248.539062 " fill-opacity="1" fill-rule="nonzero"/><path fill="#ffffff" d="M 269.394531 248.539062 L 258.410156 248.539062 L 238.625 214.777344 L 238.625 248.539062 L 228.351562 248.539062 L 228.351562 197.238281 L 239.335938 197.238281 L 259.121094 231.046875 L 259.121094 197.238281 L 269.394531 197.238281 Z M 269.394531 248.539062 " fill-opacity="1" fill-rule="nonzero"/><path fill="#ffffff" d="M 289.179688 248.539062 L 278.90625 248.539062 L 278.90625 197.238281 L 289.179688 197.238281 Z M 289.179688 248.539062 " fill-opacity="1" fill-rule="nonzero"/><path fill="#ffffff" d="M 333.863281 248.539062 L 298.691406 248.539062 L 298.691406 197.238281 L 333.863281 197.238281 L 333.863281 207.511719 L 308.964844 207.511719 L 308.964844 217.785156 L 325.804688 217.785156 L 325.804688 228.054688 L 308.964844 228.054688 L 308.964844 238.28125 L 333.863281 238.28125 L 333.863281 248.554688 Z M 333.863281 248.539062 " fill-opacity="1" fill-rule="nonzero"/></svg>